<svg width="13" height="12" viewBox="0 0 13 12" fill="none" xmlns="http://www.w3.org/2000/svg">
<path d="M12.5583 4.96875H2.79979L8.64056 0.21875C8.73396 0.142188 8.67725 0 8.55383 0H7.0778C7.01275 0 6.95104 0.0218749 6.90267 0.0609374L0.599917 5.18437C0.542191 5.23125 0.495895 5.28921 0.464166 5.35431C0.432437 5.41942 0.416016 5.49015 0.416016 5.56172C0.416016 5.63329 0.432437 5.70402 0.464166 5.76913C0.495895 5.83423 0.542191 5.89218 0.599917 5.93906L6.93936 11.0938C6.96438 11.1141 6.9944 11.125 7.02609 11.125H8.55216C8.67558 11.125 8.73229 10.9812 8.63889 10.9062L2.79979 6.15625H12.5583C12.6317 6.15625 12.6917 6.1 12.6917 6.03125V5.09375C12.6917 5.025 12.6317 4.96875 12.5583 4.96875Z" fill="black"/>
</svg>
