<svg width="14" height="12" viewBox="0 0 14 12" fill="none" xmlns="http://www.w3.org/2000/svg">
<path d="M12.8662 5.18437L6.56514 0.0609374C6.51678 0.0218749 6.45507 0 6.39002 0H4.91399C4.79057 0 4.73386 0.14375 4.82726 0.21875L10.668 4.96875H0.907841C0.834456 4.96875 0.774414 5.025 0.774414 5.09375V6.03125C0.774414 6.1 0.834456 6.15625 0.907841 6.15625H10.6664L4.82559 10.9062C4.73219 10.9828 4.7889 11.125 4.91232 11.125H6.43839C6.47008 11.125 6.50177 11.1141 6.52512 11.0938L12.8662 5.94063C12.924 5.89359 12.9703 5.83549 13.002 5.77026C13.0337 5.70503 13.0501 5.63418 13.0501 5.5625C13.0501 5.49082 13.0337 5.41997 13.002 5.35474C12.9703 5.28951 12.924 5.23141 12.8662 5.18437Z" fill="black"/>
</svg>
